<?xml version="1.0" standalone="no"?>
<!DOCTYPE svg PUBLIC "-//W3C//DTD SVG 20010904//EN"
 "http://www.w3.org/TR/2001/REC-SVG-20010904/DTD/svg10.dtd">
<svg version="1.0" xmlns="http://www.w3.org/2000/svg"
 width="800.000000pt" height="913.000000pt" viewBox="0 0 800.000000 913.000000"
 preserveAspectRatio="xMidYMid meet">
<metadata>
Created by potrace 1.16, written by Peter Selinger 2001-2019
</metadata>
<g transform="translate(0.000000,913.000000) scale(0.100000,-0.100000)"
fill="#000000" stroke="none">
<path d="M3834 9090 c-230 -60 -403 -224 -482 -455 l-27 -80 0 -2340 0 -2340
27 -80 c99 -291 352 -475 653 -475 312 0 570 197 662 505 17 57 18 185 21
2350 2 1916 0 2303 -12 2370 -57 332 -337 566 -675 564 -60 0 -123 -7 -167
-19z"/>
<path d="M1382 6860 c-193 -51 -328 -169 -574 -500 -670 -904 -923 -2060 -693
-3176 170 -822 622 -1601 1251 -2153 643 -565 1402 -895 2254 -982 162 -17
600 -17 760 0 1209 125 2259 755 2927 1756 277 415 478 894 578 1379 210 1023
19 2075 -538 2951 -135 213 -326 456 -448 570 -204 191 -525 231 -782 98 -91
-47 -228 -181 -274 -268 -62 -118 -78 -186 -78 -330 0 -116 3 -139 29 -218 34
-104 72 -165 196 -312 311 -370 509 -811 587 -1305 25 -163 25 -577 0 -740
-89 -567 -328 -1048 -721 -1448 -403 -412 -904 -668 -1486 -759 -162 -25 -576
-25 -740 0 -585 91 -1088 349 -1495 768 -387 398 -624 877 -712 1439 -25 163
-25 577 0 740 77 493 274 930 588 1305 121 145 164 212 196 309 24 72 27 97
28 216 0 149 -15 215 -78 335 -46 87 -183 221 -274 268 -148 77 -342 99 -501
57z"/>
</g>
</svg>
